<svg version="1" xmlns="http://www.w3.org/2000/svg" width="533.333" height="533.333" viewBox="0 0 400.000000 400.000000"><path d="M195.5 149.9c-7.2 2.4-11.7 5.4-17.5 11.8-5.2 5.6-8.2 11.1-9.6 17.3-1.3 5.7-1.2 15.2.1 19.7 1.1 3.6 1 5.1-.2 9.4-1.8 6.1-.7 8.3 2.7 4.9l2.1-2.1 4.2 4.7c10.2 11.6 24.6 16.4 39.5 13.3 20.5-4.2 34.5-23.9 32.1-45.2-.6-5.5-.4-6.2 2.7-10.9 3.3-4.8 4.2-8.2 2.7-9.1-2-1.1-7.4 1.5-8.4 4l-1 2.6-3-4.7c-4-5.9-9.9-10.8-17.5-14.3-7.5-3.4-21-4.1-28.9-1.4zm22 8.6c4.2 1.2 11.9 6.1 10.7 6.9-.6.3-2.5 4.1-4.2 8.4-3.3 7.9-8.7 16.2-15.9 24.2l-4 4.5 1.5-5.5c.7-3 3.2-10.7 5.5-17 4.8-13.5 5.3-16.7 2.4-16.2-1 .2-2.5 1.1-3.2 2-3.3 4.3-8.9 18.9-12.9 33.6-2.6 9.9-3 14.1-1.3 15.1 1 .7 7.3-5.3 16.2-15.5l4.7-5.4-1.5 4.9c-2.2 7.2-3 15.1-1.5 16 1.5.9 12.5-10.3 24.7-25.2 1.3-1.6 1.4-1.3.9 3.5-1.4 14.4-14.2 26.5-29 27.6-6.3.4-13.3-.9-15.5-3-4-3.7 1.1-25.8 11.3-48.7 1.4-3.2 2.6-6.2 2.6-6.7 0-3.1-4.7.3-13.9 10l-10.3 10.9-3.3-2.6-3.3-2.7 2.1-3.8c7.4-12.9 22.8-19.2 37.2-15.3zm20.6 19.3c1 3 .8 3.7-2.7 8.7-2 3-5.9 7.8-8.5 10.7l-4.8 5.3 1-4c.6-2.2 2.9-9.8 5.2-16.9l4.1-12.8 2.3 2.8c1.3 1.6 2.8 4.4 3.4 6.2zm-44.1 4.9c-1.5 3.8-2.9 7.5-3.2 8.3-.3 1.1-.9.6-2.1-1.6-1.6-3.1-1.6-3.1 2.9-8.2 2.5-2.9 4.7-5.2 4.9-5.2.1 0-.9 3-2.5 6.7zm-13.5 1.6c1.7 1.3 1.7 1.5-.5 4.5-2.4 3.2-4.1 2.8-3.5-.7.2-.9.4-2.4.4-3.4.1-2 1.1-2.2 3.6-.4zm6.2 8.4c.7 2.5.8 7.3.3 16.7l-.1 2.8-2.2-2c-1.2-1.2-3.1-3.7-4.1-5.7l-2-3.6 2.7-5.4c3-6.1 4.3-6.8 5.4-2.8z"/></svg>